<svg xmlns="http://www.w3.org/2000/svg" width="136" height="84" viewBox="0 0 136 84">
  <g fill="none" fill-rule="evenodd">
    <path fill="#EF5350" d="M29.9488306 79.8c0 2.31-1.8994393 4.2-4.2209762 4.2H4.22097612C1.89943925 84 0 82.11 0 79.8V63c0-2.31 1.89943925-4.2 4.22097612-4.2H25.7278544c2.3215369 0 4.2209762 1.89 4.2209762 4.2v4.2h3.2206637c.5524573 0 1.0003124-.4493594 1.0003124-1.000605V52.3931531c0-1.1007881-.8963958-1.9931531-2.0099086-1.9931531H2.00990863c-1.11004188 0-1.8948365-.8816522-1.75080853-1.9851563L6.0299659 4.2c0-2.31 1.89943924-4.2 4.2209761-4.2h.4019977c2.3215369 0 4.2209762 1.89 4.2209762 4.2v35.7943963c0 1.1076643.9032073 2.0056037 1.9987166 2.0056037h29.7703756c1.1038608 0 1.8405292.8814477 1.644027 1.9763919l-5.3205864 29.6472162C42.7705589 74.7151392 41.7213264 75.6 40.6052803 75.6H29.9488306v4.2z"/>
    <path fill="#424242" d="M129.311353 63.606716h-11.943681l-2.065449 12.3541402h-8.127091l5.702434-33.6931097h22.54033l-1.257229 7.3001738h-14.45814L118.58 56.3065422h11.943681M102.280917 63.606716H90.3372364l-2.0654486 12.3541402h-8.127091l5.702434-33.6931097h22.5403302l-1.25723 7.3001738H92.6720913l-1.1225264 6.7386219h11.9436811M52.3060422 73.480669C51.1086748 72.0455849 50.51 70.0645746 50.51 67.5375788c0-1.1231093.119735-2.3553912.3592084-3.6968829l3.6369856-21.5729494h8.08219L58.9513985 63.653512c-.1197368.779937-.1796043 1.5910593-.1796043 2.4333912 0 2.1838236 1.257217 3.275719 3.7716887 3.275719 1.4967094 0 2.6940589-.4055611 3.5920845-1.2166956s1.5266341-2.308591 1.8858443-4.4924146l3.6369855-21.3857655h8.0821901l-3.6369856 21.5729494c-.7483546 4.3676472-2.3123924 7.5887387-4.6921603 9.6633711-2.3797678 2.0746324-5.7398299 3.111933-10.080287 3.111933s-7.3487977-1.0450999-9.0251122-3.135331z"/>
  </g>
</svg>
