<?xml version="1.0" encoding="UTF-8" standalone="no"?>
<svg width="136px" height="84px" viewBox="0 0 136 84" version="1.1" xmlns="http://www.w3.org/2000/svg" xmlns:xlink="http://www.w3.org/1999/xlink">
    <!-- Generator: Sketch 3.8.3 (29802) - http://www.bohemiancoding.com/sketch -->
    <title>buff-logo</title>
    <desc>Created with Sketch.</desc>
    <defs></defs>
    <g id="Page-1" stroke="none" stroke-width="1" fill="none" fill-rule="evenodd">
        <g id="buff-logo">
            <path d="M29.9488306,4.2 C29.9488306,1.89 28.0493913,0 25.7278544,0 L4.22097612,0 C1.89943925,0 0,1.89 0,4.2 L0,21 C0,23.31 1.89943925,25.2 4.22097612,25.2 L25.7278544,25.2 C28.0493913,25.2 29.9488306,23.31 29.9488306,21 L29.9488306,16.8 L33.1694943,16.8 C33.7219516,16.8 34.1698067,17.2493594 34.1698067,17.800605 L34.1698067,31.6068469 C34.1698067,32.707635 33.2734109,33.6 32.1598981,33.6 L2.00990863,33.6 C0.899866746,33.6 0.115072135,34.4816522 0.259100097,35.5851563 L6.02996589,79.8 C6.02996589,82.11 7.92940514,84 10.250942,84 L10.6529397,84 C12.9744766,84 14.8739159,82.11 14.8739159,79.8 L14.8739159,44.0056037 C14.8739159,42.8979394 15.7771232,42 16.8726325,42 L46.6430081,42 C47.7468689,42 48.4835373,41.1185523 48.2870351,40.0236081 L42.9664487,10.3763919 C42.7705589,9.28486081 41.7213264,8.4 40.6052803,8.4 L29.9488306,8.4 L29.9488306,4.2 Z" id="Paintbrush" fill="#EF5350" transform="translate(24.000000, 42.000000) scale(-1, 1) rotate(-180.000000) translate(-24.000000, -42.000000) "></path>
            <polygon id="Path" fill="#424242" points="129.311353 63.606716 117.367672 63.606716 115.302223 75.9608562 107.175132 75.9608562 112.877566 42.2677465 135.417896 42.2677465 134.160667 49.5679203 119.702527 49.5679203 118.58 56.3065422 130.523681 56.3065422"></polygon>
            <polygon id="Path" fill="#424242" points="102.280917 63.606716 90.3372364 63.606716 88.2717878 75.9608562 80.1446968 75.9608562 85.8471308 42.2677465 108.387461 42.2677465 107.130231 49.5679203 92.6720913 49.5679203 91.5495649 56.3065422 103.493246 56.3065422"></polygon>
            <path d="M52.3060422,73.480669 C51.1086748,72.0455849 50.51,70.0645746 50.51,67.5375788 C50.51,66.4144695 50.629735,65.1821876 50.8692084,63.8406959 L54.506194,42.2677465 L62.588384,42.2677465 L58.9513985,63.653512 C58.8316617,64.433449 58.7717942,65.2445713 58.7717942,66.0869032 C58.7717942,68.2707268 60.0290112,69.3626222 62.5434829,69.3626222 C64.0401923,69.3626222 65.2375418,68.9570611 66.1355674,68.1459266 C67.033593,67.3347921 67.6622015,65.8373356 68.0214117,63.653512 L71.6583972,42.2677465 L79.7405873,42.2677465 L76.1036017,63.8406959 C75.3552471,68.2083431 73.7912093,71.4294346 71.4114414,73.504067 C69.0316736,75.5786994 65.6716115,76.616 61.3311544,76.616 C56.9906973,76.616 53.9823567,75.5709001 52.3060422,73.480669 Z" id="Path" fill="#424242"></path>
        </g>
    </g>
</svg>